<?xml version="1.0" encoding="utf-8"?>
<!-- Generator: Adobe Illustrator 19.2.1, SVG Export Plug-In . SVG Version: 6.00 Build 0)  -->
<svg version="1.1" id="Layer_1" xmlns="http://www.w3.org/2000/svg" xmlns:xlink="http://www.w3.org/1999/xlink" x="0px" y="0px"
	 viewBox="0 0 612 197.8" style="enable-background:new 0 0 612 197.8;" xml:space="preserve">
<style type="text/css">
	.st0{fill:#E84546;}
	.st1{fill:none;stroke:#D62727;stroke-width:6.1759;stroke-miterlimit:10;}
	.st2{fill:#FBE751;}
	.st3{fill:#FFD33F;}
	.st4{fill:#FAA935;}
	.st5{clip-path:url(#SVGID_2_);fill:#3C97D3;}
	.st6{clip-path:url(#SVGID_2_);}
	.st7{fill:#3086C1;}
	.st8{fill:#52A5DB;}
	.st9{fill:#E2EFF0;}
</style>
<g>
	<g>
		<rect x="218.6" y="21.8" class="st0" width="155" height="155"/>
		<rect x="218.6" y="21.8" class="st1" width="71.5" height="108.4"/>
		<rect x="290.1" y="21.8" class="st1" width="83.5" height="62.4"/>
		<rect x="290.1" y="84.3" class="st1" width="83.5" height="52.5"/>
		<rect x="290.1" y="136.7" class="st1" width="40.1" height="40.1"/>
		<rect x="330.2" y="136.7" class="st1" width="25.4" height="40.1"/>
		<rect x="355.6" y="136.7" class="st1" width="18" height="40.1"/>
		<rect x="218.6" y="130.3" class="st1" width="71.5" height="46.6"/>
	</g>
	<g>
		<polygon class="st2" points="488.1,14.8 535.5,97.4 583,179.9 488.1,179.9 393.2,179.9 440.6,97.4 		"/>
		<polygon class="st3" points="488.1,53.1 524.5,116.5 560.9,179.9 488.1,179.9 415.3,179.9 451.7,116.5 		"/>
		<polygon class="st2" points="488.1,97.1 511.8,138.5 535.5,179.9 488.1,179.9 440.6,179.9 464.4,138.5 		"/>
		<polygon class="st4" points="488.1,135.5 500.7,157.7 513.4,179.9 488.1,179.9 462.8,179.9 475.4,157.7 		"/>
	</g>
	<g>
		<g>
			<defs>
				<circle id="SVGID_1_" cx="114.4" cy="99.6" r="82.7"/>
			</defs>
			<clipPath id="SVGID_2_">
				<use xlink:href="#SVGID_1_"  style="overflow:visible;"/>
			</clipPath>
			<circle class="st5" cx="114.4" cy="99.6" r="82.7"/>
			<g class="st6">
				<g id="XMLID_4_">
					<g>
						<path class="st7" d="M209.8,51.9c0,17.4-4.6,33.7-12.8,47.7c-16.5-28.5-47.3-47.7-82.6-47.7S48.3,71.1,31.8,99.6
							C23.7,85.6,19,69.3,19,51.9c0-52.7,42.7-95.4,95.4-95.4S209.8-0.8,209.8,51.9z"/>
						<path class="st7" d="M197.1,99.6c8.1,14,12.8,30.3,12.8,47.7c0,52.7-42.7,95.4-95.4,95.4S19,200,19,147.3
							c0-17.4,4.6-33.7,12.8-47.7c16.5,28.5,47.3,47.7,82.6,47.7S180.6,128.1,197.1,99.6z"/>
						<path class="st8" d="M114.4,51.9c35.3,0,66.1,19.2,82.6,47.7c-16.5,28.5-47.3,47.7-82.6,47.7s-66.1-19.2-82.6-47.7
							C48.3,71.1,79.1,51.9,114.4,51.9z M151.4,99.6c0-20.4-16.6-37-37-37s-37,16.6-37,37s16.5,37,37,37S151.4,120,151.4,99.6z"/>
						<path class="st9" d="M114.4,62.6c20.4,0,37,16.6,37,37s-16.6,37-37,37s-37-16.5-37-37S94,62.6,114.4,62.6z M127.2,99.6
							c0-7.1-5.7-12.8-12.8-12.8c-7.1,0-12.8,5.7-12.8,12.8c0,7.1,5.7,12.8,12.8,12.8C121.5,112.4,127.2,106.7,127.2,99.6z"/>
						<circle class="st7" cx="114.4" cy="99.6" r="12.8"/>
					</g>
					<g>
					</g>
				</g>
			</g>
		</g>
	</g>
</g>
</svg>
