<?xml version="1.0" encoding="utf-8"?>
<!-- Generator: Adobe Illustrator 19.2.1, SVG Export Plug-In . SVG Version: 6.00 Build 0)  -->
<svg version="1.1" id="Layer_1" xmlns="http://www.w3.org/2000/svg" xmlns:xlink="http://www.w3.org/1999/xlink" x="0px" y="0px"
	 viewBox="0 0 583.3 252.5" enable-background="new 0 0 583.3 252.5" xml:space="preserve">
<g>
	<g>
		<path fill="#EBC244" d="M381.8,239.6h180.1V121.2c0-3.8-3.1-6.9-6.9-6.9H388.7c-3.8,0-6.9,3.1-6.9,6.9V239.6z"/>
		<rect x="388" y="124.5" fill="#FFFFFF" width="167.6" height="105.3"/>
		<rect x="366.4" y="239.6" fill="#CEA532" width="210.9" height="5.6"/>
		<polygon fill="#B58E2C" points="389.2,249.9 554.5,249.9 577.3,245.2 366.4,245.2 		"/>
		<rect x="460.7" y="239.6" fill="#EBC244" width="22.2" height="2.8"/>
	</g>
	<g>
		<rect x="395.5" y="133.3" fill="#333333" width="26.1" height="6.5"/>
		<rect x="492.7" y="135.2" fill="#E8ECEF" width="17.4" height="2.5"/>
		<rect x="511.9" y="135.2" fill="#1D92C0" width="17.4" height="2.5"/>
		<rect x="531.1" y="135.2" fill="#E8ECEF" width="17.4" height="2.5"/>
		<rect x="395.5" y="197" fill="#1D92C0" width="48.3" height="32.6"/>
		<rect x="400.2" y="202.6" fill="#E8ECEF" width="21.9" height="2.4"/>
		<rect x="400.2" y="207.7" fill="#E8ECEF" width="38.9" height="2.4"/>
		<rect x="400.2" y="212.1" fill="#E8ECEF" width="38.9" height="2.4"/>
		<rect x="400.2" y="215.3" fill="#E8ECEF" width="38.9" height="2.4"/>
		<rect x="400.2" y="218.4" fill="#E8ECEF" width="38.9" height="2.4"/>
		<rect x="400.2" y="223.8" fill="#E8ECEF" width="9.2" height="2.4"/>
		<rect x="447.9" y="197" fill="#F35A25" width="48.3" height="32.6"/>
		<rect x="452.5" y="202.6" fill="#E8ECEF" width="21.9" height="2.4"/>
		<rect x="452.5" y="207.7" fill="#E8ECEF" width="38.9" height="2.4"/>
		<rect x="452.5" y="212.1" fill="#E8ECEF" width="38.9" height="2.4"/>
		<rect x="452.5" y="215.3" fill="#E8ECEF" width="38.9" height="2.4"/>
		<rect x="452.5" y="218.4" fill="#E8ECEF" width="38.9" height="2.4"/>
		<rect x="452.5" y="223.8" fill="#E8ECEF" width="9.2" height="2.4"/>
		<rect x="500.2" y="197" fill="#FFBE32" width="48.3" height="32.6"/>
		<rect x="504.9" y="202.6" fill="#E8ECEF" width="21.9" height="2.4"/>
		<rect x="504.9" y="207.7" fill="#E8ECEF" width="38.9" height="2.4"/>
		<rect x="504.9" y="212.1" fill="#E8ECEF" width="38.9" height="2.4"/>
		<rect x="504.9" y="215.3" fill="#E8ECEF" width="38.9" height="2.4"/>
		<rect x="504.9" y="218.4" fill="#E8ECEF" width="38.9" height="2.4"/>
		<rect x="504.9" y="223.8" fill="#E8ECEF" width="9.2" height="2.4"/>
		<rect x="395.5" y="147.3" fill="#1D92C0" width="153" height="44.5"/>
		<rect x="452.5" y="158.7" fill="#E8ECEF" width="40.8" height="2.4"/>
		<rect x="452.5" y="162.3" fill="#E8ECEF" width="40.8" height="2.4"/>
		<rect x="458.6" y="167.4" fill="#E8ECEF" width="28.6" height="2.4"/>
		<rect x="458.6" y="171.2" fill="#E8ECEF" width="28.6" height="2.4"/>
		<rect x="462.1" y="178.5" fill="#F35A25" width="21.6" height="4.1"/>
	</g>
	<g>
		<path fill="#E8ECEF" d="M331.2,252.5h-65.6c0,0,13.1-20.6,13.1-44.2s39.4-23.6,39.4,0S331.2,252.5,331.2,252.5z"/>
		<path fill="#EBC244" d="M405.4,217.3h-214c-6.4,0-11.6-5.2-11.6-11.6v-151c0-6.4,5.2-11.6,11.6-11.6h214c6.4,0,11.6,5.2,11.6,11.6
			v151C417,212.2,411.8,217.3,405.4,217.3z"/>
		<circle fill="#E8ECEF" cx="298.4" cy="197.9" r="4.1"/>
	</g>
	<g>
		<defs>
			<path id="SVGID_1_" d="M400,184.4H196.8c-5.4,0-9.8-4.4-9.8-9.8V60.9c0-5.4,4.4-9.8,9.8-9.8H400c5.4,0,9.8,4.4,9.8,9.8v113.6
				C409.8,180,405.4,184.4,400,184.4z"/>
		</defs>
		<clipPath id="SVGID_2_">
			<use xlink:href="#SVGID_1_"  overflow="visible"/>
		</clipPath>
		<g clip-path="url(#SVGID_2_)">
			<g>
				<rect x="184.4" y="48.2" fill="#E1F5F9" width="225.6" height="146.6"/>
				<rect x="197.2" y="48.2" fill="#FFFFFF" width="199.9" height="138.2"/>
			</g>
			<rect x="206.5" y="64.1" fill="#333333" width="30.9" height="7.7"/>
			<rect x="321.5" y="66.5" fill="#E8ECEF" width="20.6" height="3"/>
			<rect x="344.2" y="66.5" fill="#1D92C0" width="20.6" height="3"/>
			<rect x="366.9" y="66.5" fill="#E8ECEF" width="20.6" height="3"/>
			<rect x="206.5" y="139.5" fill="#1D92C0" width="57.1" height="38.5"/>
			<rect x="212" y="146.2" fill="#E8ECEF" width="25.9" height="2.8"/>
			<rect x="212" y="152.2" fill="#E8ECEF" width="46.1" height="2.8"/>
			<rect x="212" y="157.4" fill="#E8ECEF" width="46.1" height="2.8"/>
			<rect x="212" y="161.2" fill="#E8ECEF" width="46.1" height="2.8"/>
			<rect x="212" y="164.8" fill="#E8ECEF" width="46.1" height="2.8"/>
			<rect x="212" y="171.3" fill="#E8ECEF" width="10.9" height="2.8"/>
			<rect x="268.4" y="139.5" fill="#F35A25" width="57.1" height="38.5"/>
			<rect x="274" y="146.2" fill="#E8ECEF" width="25.9" height="2.8"/>
			<rect x="274" y="152.2" fill="#E8ECEF" width="46.1" height="2.8"/>
			<rect x="274" y="157.4" fill="#E8ECEF" width="46.1" height="2.8"/>
			<rect x="274" y="161.2" fill="#E8ECEF" width="46.1" height="2.8"/>
			<rect x="274" y="164.8" fill="#E8ECEF" width="46.1" height="2.8"/>
			<rect x="274" y="171.3" fill="#E8ECEF" width="10.9" height="2.8"/>
			<rect x="330.4" y="139.5" fill="#FFBE32" width="57.1" height="38.5"/>
			<rect x="335.9" y="146.2" fill="#E8ECEF" width="25.9" height="2.8"/>
			<rect x="335.9" y="152.2" fill="#E8ECEF" width="46.1" height="2.8"/>
			<rect x="335.9" y="157.4" fill="#E8ECEF" width="46.1" height="2.8"/>
			<rect x="335.9" y="161.2" fill="#E8ECEF" width="46.1" height="2.8"/>
			<rect x="335.9" y="164.8" fill="#E8ECEF" width="46.1" height="2.8"/>
			<rect x="335.9" y="171.3" fill="#E8ECEF" width="10.9" height="2.8"/>
			<rect x="206.5" y="80.7" fill="#1D92C0" width="181.1" height="52.7"/>
			<rect x="273.9" y="94.3" fill="#E8ECEF" width="48.3" height="2.8"/>
			<rect x="273.9" y="98.4" fill="#E8ECEF" width="48.3" height="2.8"/>
			<rect x="281.1" y="104.5" fill="#E8ECEF" width="33.9" height="2.8"/>
			<rect x="281.1" y="109" fill="#E8ECEF" width="33.9" height="2.8"/>
			<rect x="285.3" y="117.7" fill="#F35A25" width="25.5" height="4.9"/>
		</g>
	</g>
	<g>
		<g>
			<path fill="#EBC244" d="M171.2,145.7v96.7c0,5.6-4.5,10.1-10.1,10.1h-141c-5.6,0-10.1-4.5-10.1-10.1v-96.7
				c0-5.6,4.5-10.1,10.1-10.1h141C166.7,135.7,171.2,140.2,171.2,145.7z"/>
			
				<rect x="39.5" y="127.7" transform="matrix(8.968477e-011 -1 1 8.968477e-011 -106.7573 281.4109)" fill="#FFFFFF" width="95.6" height="132.7"/>
			<circle fill="#E8ECEF" cx="162.7" cy="194.1" r="4.1"/>
			<circle fill="#E8ECEF" cx="162.7" cy="181" r="4.1"/>
			<circle fill="#E8ECEF" cx="162.7" cy="206.2" r="4.1"/>
			<path fill="#E8ECEF" d="M18,177.8v32.5c0,1.2-1,2.2-2.2,2.2h0c-1.2,0-2.2-1-2.2-2.2v-32.5c0-1.2,1-2.2,2.2-2.2h0
				C17.1,175.6,18,176.6,18,177.8z"/>
		</g>
		<g>
			<defs>
				
					<rect id="SVGID_3_" x="39.5" y="127.7" transform="matrix(8.968477e-011 -1 1 8.968477e-011 -106.7573 281.4109)" width="95.6" height="132.7"/>
			</defs>
			<clipPath id="SVGID_4_">
				<use xlink:href="#SVGID_3_"  overflow="visible"/>
			</clipPath>
			<g clip-path="url(#SVGID_4_)">
				<rect x="26.1" y="151.6" fill="#333333" width="20.8" height="5.2"/>
				<rect x="103.6" y="153.2" fill="#E8ECEF" width="13.9" height="2"/>
				<rect x="118.9" y="153.2" fill="#1D92C0" width="13.9" height="2"/>
				<rect x="134.2" y="153.2" fill="#E8ECEF" width="13.9" height="2"/>
				<rect x="26.1" y="195.4" fill="#1D92C0" width="57.3" height="26"/>
				<rect x="31.6" y="199.9" fill="#E8ECEF" width="26" height="1.9"/>
				<rect x="31.6" y="204" fill="#E8ECEF" width="46.2" height="1.9"/>
				<rect x="31.6" y="207.5" fill="#E8ECEF" width="46.2" height="1.9"/>
				<rect x="31.6" y="210" fill="#E8ECEF" width="46.2" height="1.9"/>
				<rect x="31.6" y="212.5" fill="#E8ECEF" width="46.2" height="1.9"/>
				<rect x="31.6" y="216.8" fill="#E8ECEF" width="11" height="1.9"/>
				<rect x="88.3" y="195.4" fill="#F35A25" width="57.3" height="26"/>
				<rect x="93.8" y="199.9" fill="#E8ECEF" width="26" height="1.9"/>
				<rect x="93.8" y="204" fill="#E8ECEF" width="46.2" height="1.9"/>
				<rect x="93.8" y="207.5" fill="#E8ECEF" width="46.2" height="1.9"/>
				<rect x="93.8" y="210" fill="#E8ECEF" width="46.2" height="1.9"/>
				<rect x="93.8" y="212.5" fill="#E8ECEF" width="46.2" height="1.9"/>
				<rect x="93.8" y="216.8" fill="#E8ECEF" width="11" height="1.9"/>
				<rect x="26.1" y="223.9" fill="#FFBE32" width="57.3" height="26"/>
				<rect x="31.6" y="228.4" fill="#E8ECEF" width="26" height="1.9"/>
				<rect x="31.6" y="232.4" fill="#E8ECEF" width="46.2" height="1.9"/>
				<rect x="31.6" y="235.9" fill="#E8ECEF" width="46.2" height="1.9"/>
				<rect x="31.6" y="238.5" fill="#E8ECEF" width="46.2" height="1.9"/>
				<rect x="31.6" y="241" fill="#E8ECEF" width="46.2" height="1.9"/>
				<rect x="31.6" y="245.3" fill="#E8ECEF" width="11" height="1.9"/>
				<rect x="88.3" y="223.9" fill="#1D92C0" width="57.3" height="26"/>
				<rect x="93.8" y="228.4" fill="#E8ECEF" width="26" height="1.9"/>
				<rect x="93.8" y="232.4" fill="#E8ECEF" width="46.2" height="1.9"/>
				<rect x="93.8" y="235.9" fill="#E8ECEF" width="46.2" height="1.9"/>
				<rect x="93.8" y="238.5" fill="#E8ECEF" width="46.2" height="1.9"/>
				<rect x="93.8" y="241" fill="#E8ECEF" width="46.2" height="1.9"/>
				<rect x="93.8" y="245.3" fill="#E8ECEF" width="11" height="1.9"/>
				<rect x="21" y="160.8" fill="#1D92C0" width="132.7" height="31.1"/>
				<rect x="71.5" y="166.3" fill="#E8ECEF" width="32.5" height="1.9"/>
				<rect x="71.5" y="169.1" fill="#E8ECEF" width="32.5" height="1.9"/>
				<rect x="76.4" y="173.2" fill="#E8ECEF" width="22.8" height="1.9"/>
				<rect x="76.4" y="176.2" fill="#E8ECEF" width="22.8" height="1.9"/>
				<rect x="79.2" y="182.1" fill="#F35A25" width="17.2" height="3.3"/>
			</g>
		</g>
	</g>
	<g>
		<g>
			<path fill="#EBC244" d="M243.1,252.5h-43c-2.7,0-4.9-2.2-4.9-4.9v-74.5c0-2.7,2.2-4.9,4.9-4.9h43c2.7,0,4.9,2.2,4.9,4.9v74.5
				C248,250.3,245.8,252.5,243.1,252.5z"/>
			<rect x="200" y="173.9" fill="#FFFFFF" width="43.2" height="69.4"/>
			<path fill="#E8ECEF" d="M230.1,172.4h-17c-0.6,0-1.1-0.5-1.1-1.1l0,0c0-0.6,0.5-1.1,1.1-1.1h17c0.6,0,1.1,0.5,1.1,1.1l0,0
				C231.3,171.9,230.8,172.4,230.1,172.4z"/>
			<circle fill="#E8ECEF" cx="221.6" cy="248" r="2.9"/>
		</g>
		<g>
			<rect x="200" y="173.9" fill="#1D92C0" width="43.2" height="44.2"/>
			<rect x="211" y="187.4" fill="#E8ECEF" width="22.3" height="2.8"/>
			<rect x="211" y="191.6" fill="#E8ECEF" width="22.3" height="2.8"/>
			<rect x="214.3" y="197.7" fill="#E8ECEF" width="15.6" height="2.8"/>
			<rect x="214.3" y="202.2" fill="#E8ECEF" width="15.6" height="2.8"/>
			<rect x="216.2" y="207.1" fill="#F35A25" width="11.8" height="4.9"/>
			<rect x="203.3" y="220.9" fill="#1D92C0" width="36.5" height="4.9"/>
			<rect x="203.3" y="228.2" fill="#F35A25" width="36.5" height="4.9"/>
			<rect x="203.3" y="235.6" fill="#FFBE32" width="36.5" height="4.9"/>
			<rect x="200" y="173.9" fill="#FFFFFF" width="43.2" height="8.5"/>
			<rect x="203.3" y="175.7" fill="#333333" width="11.8" height="4.9"/>
			<rect x="234.6" y="175.7" fill="#E8ECEF" width="5.2" height="4.9"/>
		</g>
	</g>
</g>
<g>
</g>
<g>
</g>
<g>
</g>
<g>
</g>
<g>
</g>
<g>
</g>
<g>
</g>
<g>
</g>
<g>
</g>
<g>
</g>
<g>
</g>
<g>
</g>
<g>
</g>
<g>
</g>
<g>
</g>
</svg>
